Coordinates
version=1
nRows=14
nColumns=46
inDegrees=yes

Units are S.I. units (second, meters, Newtons, ...)
Angles are in degrees.

endheader
time	pelvis_tilt	pelvis_list	pelvis_rotation	pelvis_tx	pelvis_ty	pelvis_tz	bb_angle	bb_tx	bb_ty	bb_tz	hip_flexion_r	hip_adduction_r	hip_rotation_r	knee_angle_r	knee_angle_r_beta	ankle_angle_r	subtalar_angle_r	mtp_angle_r	crank_angle_r	hip_flexion_l	hip_adduction_l	hip_rotation_l	knee_angle_l	knee_angle_l_beta	ankle_angle_l	subtalar_angle_l	mtp_angle_l	crank_angle_l	lumbar_extension	lumbar_bending	lumbar_rotation	arm_flex_r	arm_add_r	arm_rot_r	elbow_flex_r	pro_sup_r	wrist_flex_r	wrist_dev_r	arm_flex_l	arm_add_l	arm_rot_l	elbow_flex_l	pro_sup_l	wrist_flex_l	wrist_dev_l
      0.00500000	    -23.27715897	      4.58929004	      3.61609107	      0.11486537	      1.06518620	     -0.25811463	      0.00000000	      0.50000000	      0.00000000	      0.25000000	     47.79427971	    -10.88046838	     -3.40408261	     48.38108147	      0.84440917	     16.08207125	     -4.66841558	      0.00000000	      0.00000000	     98.39894454	      0.00472720	     -2.15510902	    103.58002141	      1.80781241	     22.85797255	     -8.82392430	      0.00000000	      0.00000000	    -46.68799266	     -3.09278581	     -6.21840803	     89.64007951	     -4.43086586	     34.86821738	     25.47658280	     26.96112891	      0.00000000	      0.00000000	     89.73912867	     -3.78075533	     39.86203051	     30.80025432	     26.51581119	      0.00000000	      0.00000000
      0.01000000	    -23.25703494	      4.63641832	      3.58997852	      0.11490367	      1.06524670	     -0.25805385	      0.00000000	      0.50000000	      0.00000000	      0.25000000	     47.78461744	    -10.89542249	     -3.33288795	     48.38798756	      0.84452970	     16.14421746	     -4.60014175	      0.00000000	      0.00000000	     98.36267532	     -0.03779224	     -2.20738008	    103.58783067	      1.80794871	     22.86850302	     -8.78781416	      0.00000000	      0.00000000	    -46.70494913	     -3.15060339	     -6.20015255	     89.64108314	     -4.52421985	     35.09964030	     25.40075523	     27.69920978	      0.00000000	      0.00000000	     89.74117148	     -3.70114224	     39.84833670	     30.59551463	     26.96608355	      0.00000000	      0.00000000
      0.01500000	    -23.27644513	      4.58564910	      3.60131952	      0.11491721	      1.06515930	     -0.25810588	      0.00000000	      0.50000000	      0.00000000	      0.25000000	     47.80424435	    -10.86638700	     -3.38557486	     48.39514072	      0.84465455	     16.13331756	     -4.59813116	      0.00000000	      0.00000000	     98.40709042	     -0.02956661	     -2.15931552	    103.61074817	      1.80834870	     22.84251424	     -8.81321453	      0.00000000	      0.00000000	    -46.66118263	     -3.12171634	     -6.16650446	     89.64406704	     -4.72638384	     35.77034893	     25.20796613	     28.95615806	      0.00000000	      0.00000000	     89.74282263	     -3.70556641	     40.00792484	     30.43707122	     27.62499991	      0.00000000	      0.00000000
      0.02000000	    -23.16345746	      4.59365552	      3.59184994	      0.11502066	      1.06547280	     -0.25797669	      0.00000000	      0.50000000	      0.00000000	      0.25000000	     47.66026350	    -10.85998627	     -3.41927700	     48.36271535	      0.84408862	     16.05932277	     -4.68791038	      0.00000000	      0.00000000	     98.26750098	     -0.07491063	     -2.15934373	    103.57082505	      1.80765191	     22.84832355	     -8.70747428	      0.00000000	      0.00000000	    -46.81044152	     -3.13174848	     -6.21113276	     89.64540829	     -4.63431986	     35.97585143	     25.96346923	     24.46897080	      0.00000000	      0.00000000	     89.74523643	     -3.57675004	     37.35099269	     31.89253126	     21.73373779	      0.00000000	      0.00000000
      0.02500000	    -23.11275714	      4.62064241	      3.64836078	      0.11503872	      1.06549869	     -0.25807806	      0.00000000	      0.50000000	      0.00000000	      0.25000000	     47.61539574	    -10.94148273	     -3.47343197	     48.40049417	      0.84474798	     16.07115204	     -4.65098788	      0.00000000	      0.00000000	     98.23068740	      0.00364069	     -2.19379473	    103.54614656	      1.80722119	     22.74959566	     -8.85882843	      0.00000000	      0.00000000	    -46.91121389	     -3.03904432	     -6.28554730	     89.65050495	     -4.56270521	     35.62825826	     25.87770167	     25.89303189	      0.00000000	      0.00000000	     89.75440858	     -3.86982744	     35.97730924	     32.07407512	     24.07072018	      0.00000000	      0.00000000
      0.03000000	    -23.10782831	      4.63808067	      3.58352689	      0.11507582	      1.06549526	     -0.25801576	      0.00000000	      0.50000000	      0.00000000	      0.25000000	     47.62433697	    -10.90013190	     -3.38830438	     48.39730728	      0.84469236	     16.08700364	     -4.65755061	      0.00000000	      0.00000000	     98.22958279	     -0.06702096	     -2.21129209	    103.54378078	      1.80717989	     22.70690025	     -8.89782681	      0.00000000	      0.00000000	    -46.91158410	     -3.09046101	     -6.29905443	     89.65568823	     -4.52691193	     36.00887055	     25.96347602	     24.81513997	      0.00000000	      0.00000000	     89.75330143	     -3.84213739	     34.20985462	     32.75731181	     22.09027954	      0.00000000	      0.00000000
      0.03500000	    -23.10263234	      4.65776511	      3.59407479	      0.11510743	      1.06551093	     -0.25805601	      0.00000000	      0.50000000	      0.00000000	      0.25000000	     47.62161726	    -10.92952458	     -3.39084025	     48.39782688	      0.84470143	     16.08747333	     -4.64583667	      0.00000000	      0.00000000	     98.21551225	     -0.05326686	     -2.23098926	    103.52218493	      1.80680298	     22.71219588	     -8.87947395	      0.00000000	      0.00000000	    -46.90645601	     -3.05922189	     -6.34335503	     89.65302427	     -4.35803118	     35.53848417	     26.13227614	     24.02761550	      0.00000000	      0.00000000	     89.75709721	     -4.06661681	     33.78646633	     33.10932983	     21.43886162	      0.00000000	      0.00000000
      0.04000000	    -23.14108379	      4.64716379	      3.56258333	      0.11510277	      1.06539437	     -0.25803951	      0.00000000	      0.50000000	      0.00000000	      0.25000000	     47.68253935	    -10.89507887	     -3.37208233	     48.42062555	      0.84509934	     16.02225378	     -4.72273602	      0.00000000	      0.00000000	     98.27178780	     -0.09234209	     -2.21872186	    103.51820853	      1.80673357	     22.65692433	     -8.95840332	      0.00000000	      0.00000000	    -46.86201918	     -3.05210813	     -6.32522232	     89.64764480	     -3.77431601	     32.68847561	     25.29291182	     28.23188980	      0.00000000	      0.00000000	     89.75717352	     -3.87825781	     31.97802875	     32.30247357	     26.30859351	      0.00000000	      0.00000000
      0.04500000	    -23.13125357	      4.62237341	      3.53819677	      0.11509606	      1.06534806	     -0.25825948	      0.00000000	      0.50000000	      0.00000000	      0.25000000	     47.66375373	    -10.87876508	     -3.36682840	     48.39223459	      0.84460383	     16.08355514	     -4.63434640	      0.00000000	      0.00000000	     98.28032995	     -0.09640077	     -2.20261097	    103.55053328	      1.80729775	     22.70518287	     -8.92036861	      0.00000000	      0.00000000	    -46.83553155	     -3.02483372	     -6.29988471	     89.65554053	     -4.27475449	     35.46151063	     26.07742113	     24.14384978	      0.00000000	      0.00000000	     89.75870178	     -4.13200915	     32.74197014	     33.33636428	     21.24127359	      0.00000000	      0.00000000
      0.05000000	    -23.12931073	      4.63819483	      3.55920287	      0.11509455	      1.06536246	     -0.25825992	      0.00000000	      0.50000000	      0.00000000	      0.25000000	     47.66350668	    -10.91119038	     -3.38420816	     48.40645870	      0.84485208	     16.10696298	     -4.62431634	      0.00000000	      0.00000000	     98.27605922	     -0.08100799	     -2.22920846	    103.54000918	      1.80711407	     22.69224491	     -8.93635038	      0.00000000	      0.00000000	    -46.82341090	     -3.01117991	     -6.34960761	     89.65673207	     -4.20301136	     35.03582000	     25.26510657	     28.32382779	      0.00000000	      0.00000000	     89.76127360	     -4.35078352	     32.87497638	     32.54330398	     26.52527079	      0.00000000	      0.00000000
      0.05500000	    -23.17184871	      4.63120474	      3.55602320	      0.11507914	      1.06527627	     -0.25825388	      0.00000000	      0.50000000	      0.00000000	      0.25000000	     47.71454612	    -10.89928763	     -3.36879350	     48.40539570	      0.84483353	     16.10021567	     -4.60881850	      0.00000000	      0.00000000	     98.32501347	     -0.09605994	     -2.22751536	    103.54215969	      1.80715160	     22.68361949	     -8.97100972	      0.00000000	      0.00000000	    -46.76667499	     -3.01914723	     -6.29360132	     89.65548341	     -4.37637745	     35.57780177	     25.13065931	     29.27300435	      0.00000000	      0.00000000	     89.76339043	     -4.22750594	     32.85477585	     32.26771907	     27.04533248	      0.00000000	      0.00000000
      0.06000000	    -23.23740171	      4.58780211	      3.55589433	      0.11496753	      1.06516807	     -0.25822751	      0.00000000	      0.50000000	      0.00000000	      0.25000000	     47.78185160	    -10.84010084	     -3.35385515	     48.37860800	      0.84436600	     16.02234107	     -4.70273333	      0.00000000	      0.00000000	     98.42049966	     -0.11633472	     -2.20694682	    103.56609619	      1.80756937	     22.66654219	     -8.98667727	      0.00000000	      0.00000000	    -46.71900911	     -3.00743213	     -6.23523567	     89.65024185	     -3.63336368	     31.80150002	     24.67215591	     31.03147390	      0.00000000	      0.00000000	     89.76149051	     -3.61740664	     30.77350320	     31.55346516	     29.66108272	      0.00000000	      0.00000000
      0.06500000	    -23.28534474	      4.56824004	      3.58208793	      0.11493298	      1.06511416	     -0.25823330	      0.00000000	      0.50000000	      0.00000000	      0.25000000	     47.81320599	    -10.84297801	     -3.40237821	     48.34957702	      0.84385931	     16.02342809	     -4.76121125	      0.00000000	      0.00000000	     98.47806838	     -0.12313228	     -2.22242536	    103.56988172	      1.80763544	     22.70466890	     -9.00880346	      0.00000000	      0.00000000	    -46.64431457	     -2.99187992	     -6.24509587	     89.65249012	     -3.86919697	     33.22727064	     24.66397408	     30.73851366	      0.00000000	      0.00000000	     89.76275882	     -3.79595609	     32.07812398	     31.57666172	     29.10586971	      0.00000000	      0.00000000
      0.07000000	    -23.24782363	      4.54262696	      3.61763150	      0.11483571	      1.06514535	     -0.25827942	      0.00000000	      0.50000000	      0.00000000	      0.25000000	     47.76319861	    -10.84054158	     -3.41963123	     48.34570614	      0.84379175	     16.04047903	     -4.72216338	      0.00000000	      0.00000000	     98.46098330	     -0.08431088	     -2.19401611	    103.59197870	      1.80802111	     22.69814589	     -8.96990159	      0.00000000	      0.00000000	    -46.67509735	     -2.96880120	     -6.23854291	     89.66213068	     -4.46973637	     36.29547416	     25.65340703	     25.08912994	      0.00000000	      0.00000000	     89.75949500	     -3.77145311	     32.99195552	     32.77382363	     22.00318307	      0.00000000	      0.00000000
